<svg xmlns="http://www.w3.org/2000/svg" width="500" height="205" viewBox="0 0 500 205" role="img" aria-labelledby="title desc">
  <title id="title">Chuang Cheng&#x27;s GitHub Stats</title>
  <desc id="desc">GitHub profile statistics. Commits include all branches of owned non-fork repositories and are deduplicated by repository and SHA.</desc>
  <style>
    .title { font: 700 22px -apple-system,BlinkMacSystemFont,"Segoe UI",sans-serif; fill: #2f80ed; }
    .label { font: 600 14px -apple-system,BlinkMacSystemFont,"Segoe UI",sans-serif; fill: #434d58; }
    .value { font: 700 14px -apple-system,BlinkMacSystemFont,"Segoe UI",sans-serif; fill: #434d58; }
    .language { font: 400 13px -apple-system,BlinkMacSystemFont,"Segoe UI",sans-serif; fill: #434d58; }
    .grade { font: 700 30px -apple-system,BlinkMacSystemFont,"Segoe UI",sans-serif; fill: #434d58; }
    .icon { fill: none; stroke: #4c71f2; stroke-width: 2.2; stroke-linecap: round; stroke-linejoin: round; }
  </style>
  <rect x="1" y="1" width="498" height="203" rx="8" fill="#fffefe" stroke="#e4e2e2" />
  <text x="25" y="36" class="title">Chuang Cheng&apos;s GitHub Stats</text><g class="icon" transform="translate(24 51) scale(.8)"><polygon points="12 2 15.1 8.3 22 9.3 17 14.1 18.2 21 12 17.8 5.8 21 7 14.1 2 9.3 8.9 8.3 12 2" /></g><text x="55" y="68" class="label">Total Stars Earned:</text><text x="292" y="68" class="value" text-anchor="end">26</text><g class="icon" transform="translate(24 76) scale(.8)"><path d="M3 12a9 9 0 1 0 3-6.7" /><polyline points="3 3 3 8 8 8" /><polyline points="12 7 12 12 16 14" /></g><text x="55" y="93" class="label">Total Commits:</text><text x="292" y="93" class="value" text-anchor="end">1370</text><g class="icon" transform="translate(24 101) scale(.8)"><circle cx="6" cy="5" r="2" /><circle cx="6" cy="19" r="2" /><circle cx="18" cy="19" r="2" /><line x1="6" y1="7" x2="6" y2="17" /><path d="M18 17V9a4 4 0 0 0-4-4h-2" /><polyline points="14 2 11 5 14 8" /></g><text x="55" y="118" class="label">Total PRs:</text><text x="292" y="118" class="value" text-anchor="end">53</text><g class="icon" transform="translate(24 126) scale(.8)"><circle cx="12" cy="12" r="10" /><line x1="12" y1="7" x2="12" y2="13" /><line x1="12" y1="17" x2="12.01" y2="17" /></g><text x="55" y="143" class="label">Total Issues:</text><text x="292" y="143" class="value" text-anchor="end">3</text><g class="icon" transform="translate(24 151) scale(.8)"><path d="M4 19.5A2.5 2.5 0 0 1 6.5 17H20" /><path d="M6.5 2H20v20H6.5A2.5 2.5 0 0 1 4 19.5v-15A2.5 2.5 0 0 1 6.5 2z" /></g><text x="55" y="168" class="label">Contributed to (last year):</text><text x="292" y="168" class="value" text-anchor="end">4</text><circle cx="410" cy="108" r="40" fill="none" stroke="#dce9fd" stroke-width="8" /><circle cx="410" cy="108" r="40" fill="none" stroke="#4c71f2" stroke-width="8" stroke-linecap="round" stroke-dasharray="251.33" stroke-dashoffset="155.64" transform="rotate(-90 410 108)" /><text x="410" y="118" class="grade" text-anchor="middle">B</text>
</svg>
